<?xml version="1.0" encoding="UTF-8"?><svg id="a" xmlns="http://www.w3.org/2000/svg" viewBox="0 0 3222.21 374.81"><path d="M100,199.81c0,41.36,33.65,75,75,75,20.01,0,38.87-7.81,53.09-22l70.63,70.79c-33.1,33.02-77.03,51.21-123.72,51.21C78.51,374.81,0,296.3,0,199.81S78.51,24.81,175,24.81c46.69,0,90.62,18.18,123.72,51.2l-70.63,70.79c-14.21-14.18-33.07-21.99-53.09-21.99-41.35,0-75,33.64-75,75ZM1015.38,24.81c-62.03,0-112.5,50.47-112.5,112.5v125c0,6.89-5.61,12.5-12.5,12.5s-12.5-5.61-12.5-12.5v-125c0-62.03-50.47-112.5-112.5-112.5s-112.5,50.47-112.5,112.5v232.5h100v-232.5c0-6.89,5.61-12.5,12.5-12.5s12.5,5.61,12.5,12.5v125c0,62.03,50.47,112.5,112.5,112.5s112.5-50.47,112.5-112.5v-125c0-6.89,5.61-12.5,12.5-12.5s12.5,5.61,12.5,12.5v232.5h100v-232.5c0-62.03-50.47-112.5-112.5-112.5ZM419.89,165.76l-89.1-45.35c-8.25,16.05-14.05,33.55-16.95,52l98.75,15.65c1.25-7.9,3.75-15.4,7.3-22.3ZM433.69,252.81c5.5,5.55,11.9,10.2,18.95,13.8l-45.35,89.1c-16.45-8.4-31.35-19.3-44.3-32.2l70.7-70.7ZM407.29,43.91l45.35,89.1c-7.05,3.6-13.45,8.25-18.95,13.8l-70.7-70.7c12.95-12.9,27.85-23.8,44.3-32.2ZM419.89,233.86l-89.1,45.4c-8.2-16.05-14.05-33.6-16.95-52.05l98.75-15.65c1.25,7.9,3.75,15.4,7.3,22.3ZM498.44,273.91l15.65,98.75c-8.9,1.4-18.1,2.15-27.4,2.15s-18.5-.75-27.4-2.15l15.65-98.75c3.85.6,7.75.9,11.75.9s7.9-.3,11.75-.9ZM566.14,43.91c16.4,8.4,31.35,19.3,44.25,32.2l-70.7,70.7c-5.5-5.55-11.9-10.2-18.95-13.8l45.4-89.1ZM539.69,252.81l70.7,70.7c-12.9,12.9-27.85,23.8-44.25,32.2l-45.4-89.1c7.05-3.6,13.45-8.25,18.95-13.8ZM486.69,24.81c9.3,0,18.5.75,27.4,2.15l-15.65,98.75c-3.85-.6-7.75-.9-11.75-.9s-7.9.3-11.75.9l-15.65-98.75c8.9-1.4,18.1-2.15,27.4-2.15ZM1175.67,0v369.81h369.82L1175.67,0ZM1670.28,211.19c5.72-2.89,10.28-6.95,13.69-12.2,3.41-5.25,5.44-11.37,6.1-18.37h-16.59c-.38,4.45-1.61,8.32-3.69,11.63-2.08,3.32-4.77,5.89-8.08,7.73-3.31,1.84-7.14,2.76-11.49,2.76-5.11,0-9.69-1.53-13.76-4.61-4.07-3.07-7.26-7.49-9.57-13.26-2.32-5.77-3.47-12.63-3.47-20.57s1.14-14.65,3.41-20.42c2.27-5.76,5.46-10.21,9.57-13.34,4.11-3.12,8.81-4.68,14.11-4.68,6.33,0,11.49,1.92,15.46,5.75,3.97,3.82,6.29,8.91,6.95,15.24h16.59c-.57-6.99-2.62-13-6.17-18.01-3.55-5.01-8.13-8.89-13.76-11.63-5.63-2.74-11.94-4.12-18.93-4.12-8.61,0-16.15,2.11-22.62,6.32-6.48,4.2-11.51,10.13-15.11,17.8-3.59,7.66-5.39,16.69-5.39,27.09s1.72,18.78,5.18,26.52c3.45,7.76,8.37,13.8,14.75,18.15,6.38,4.36,13.97,6.53,22.77,6.53,7.66,0,14.35-1.44,20.07-4.32ZM1699.29,213.81h15.17l20.14-65.38,6.1-21.7,5.81,21.55,20.14,65.53h15.46l-30.64-99h-21.7l-30.49,99ZM1768.93,188.99v-12.9h-55.03v12.9h55.03ZM1805.1,213.81l3.12-61.98.85-21.98,3.97,21.98,13.33,61.98h12.77l13.47-61.98,4.26-21.84.57,21.84,3.26,61.98h14.89l-7.52-99h-19.43l-12.34,58.58-3.12,19.29-2.98-19.29-12.62-58.58h-19.71l-7.51,99h14.75ZM1953.46,157.08c2.45-2.17,4.32-4.75,5.6-7.73,1.28-2.98,1.91-6.22,1.91-9.72,0-7.46-2.93-13.47-8.79-18.01-5.86-4.54-14-6.81-24.4-6.81h-37.02v99h38.44c6.99,0,13.05-1.15,18.15-3.48,5.11-2.32,9.05-5.55,11.85-9.71,2.79-4.16,4.18-9.03,4.18-14.61,0-4.35-.83-8.13-2.48-11.34-1.65-3.22-3.88-5.89-6.67-8.02-2.79-2.12-5.98-3.66-9.57-4.61,3.41-1.13,6.33-2.79,8.8-4.96ZM1940.26,131.34c3.31,2.51,4.96,6.03,4.96,10.57s-1.63,8.04-4.89,10.78c-3.26,2.74-7.68,4.11-13.26,4.11h-21.13v-29.22h21.13c5.48,0,9.88,1.25,13.19,3.76ZM1905.94,169.56h21.56c6.24,0,11.16,1.4,14.75,4.19,3.59,2.79,5.39,6.64,5.39,11.56s-1.7,8.66-5.11,11.49c-3.41,2.84-7.99,4.26-13.76,4.26h-22.84v-31.49ZM1998.27,213.81v-99h-15.17v99h15.17ZM2018.27,172.4c5.96,0,11.25-.8,15.89-2.41,4.63-1.61,8.58-3.81,11.84-6.6,3.26-2.79,5.77-5.96,7.52-9.5,1.75-3.54,2.62-7.2,2.62-10.99,0-5.86-1.47-10.9-4.4-15.11-2.93-4.21-6.98-7.43-12.13-9.64-5.16-2.22-10.99-3.34-17.52-3.34h-28.08v12.77h28.08c3.41,0,6.48.64,9.22,1.92,2.74,1.28,4.92,3.05,6.53,5.32,1.61,2.27,2.41,4.96,2.41,8.09,0,3.4-.9,6.36-2.7,8.86-1.8,2.51-4.3,4.45-7.51,5.82-3.22,1.37-6.86,2.05-10.92,2.05h-25.11v12.77h24.25ZM2055.43,213.81c-.47-4.63-1.49-9.24-3.05-13.83-1.56-4.59-3.83-9.01-6.81-13.27-2.98-4.25-6.71-8.27-11.2-12.05-4.49-3.79-9.86-7.23-16.1-10.36l-16.88,3.69c6.14,2.65,11.51,5.7,16.1,9.15,4.59,3.46,8.44,7.16,11.56,11.13,3.12,3.97,5.58,8.11,7.37,12.41s2.98,8.68,3.55,13.12h15.46ZM2077.14,127.58h64.53v-12.77h-64.53v12.77ZM2077.14,213.81h64.53v-12.77h-64.53v12.77ZM2116.99,213.81v-99h-15.18v99h15.18ZM2195.85,213.81c7.19,0,13.66-1.15,19.43-3.48,5.76-2.32,10.68-5.67,14.75-10.07,4.06-4.4,7.18-9.65,9.36-15.74,2.17-6.1,3.26-12.93,3.26-20.5s-1.09-14.23-3.26-20.28c-2.18-6.06-5.3-11.23-9.36-15.54-4.07-4.3-8.99-7.61-14.75-9.93-5.77-2.32-12.25-3.48-19.43-3.48h-30.63v99h30.63ZM2180.39,127.58h15.46c6.34,0,11.85,1.49,16.53,4.47,4.68,2.98,8.27,7.21,10.78,12.7,2.5,5.48,3.76,11.91,3.76,19.28s-1.25,13.86-3.76,19.44c-2.51,5.58-6.1,9.9-10.78,12.97-4.68,3.08-10.19,4.61-16.53,4.61h-15.46v-73.47ZM2318.18,210.84c6.57-3.12,11.79-7.47,15.67-13.05v-36.31h-31.77l-.43,12.9,17.31-.57v19.58c-2.46,2.74-5.56,4.99-9.29,6.73-3.74,1.75-8.01,2.62-12.84,2.62-5.39,0-10.28-1.49-14.68-4.46-4.4-2.98-7.85-7.33-10.36-13.05-2.5-5.72-3.76-12.7-3.76-20.92s1.23-14.89,3.69-20.56c2.46-5.68,5.79-10.07,10-13.2,4.21-3.12,8.91-4.68,14.11-4.68,5.96,0,10.83,1.92,14.61,5.75,3.78,3.82,6,8.86,6.66,15.11h16.74c-.57-7-2.55-13-5.96-18.01-3.41-5.01-7.85-8.86-13.33-11.56-5.49-2.7-11.58-4.05-18.3-4.05-8.89,0-16.64,2.15-23.26,6.46-6.62,4.3-11.75,10.28-15.39,17.94-3.64,7.66-5.46,16.59-5.46,26.8s1.79,19.29,5.39,26.95c3.59,7.66,8.67,13.62,15.24,17.88,6.57,4.26,14.21,6.38,22.91,6.38s15.91-1.56,22.48-4.68ZM2423.35,213.81v-12.77h-56.59v-32.06h38.58v-12.9h-38.58v-28.51h56.03v-12.77h-71.06v99h71.63ZM2562.18,211.19c5.72-2.89,10.28-6.95,13.69-12.2,3.41-5.25,5.44-11.37,6.1-18.37h-16.59c-.38,4.45-1.61,8.32-3.69,11.63-2.08,3.32-4.77,5.89-8.08,7.73-3.31,1.84-7.14,2.76-11.49,2.76-5.11,0-9.69-1.53-13.76-4.61-4.07-3.07-7.26-7.49-9.57-13.26-2.32-5.77-3.47-12.63-3.47-20.57s1.14-14.65,3.41-20.42c2.27-5.76,5.46-10.21,9.57-13.34,4.11-3.12,8.81-4.68,14.11-4.68,6.33,0,11.49,1.92,15.46,5.75,3.97,3.82,6.29,8.91,6.95,15.24h16.59c-.57-6.99-2.62-13-6.17-18.01-3.55-5.01-8.13-8.89-13.76-11.63-5.63-2.74-11.94-4.12-18.93-4.12-8.61,0-16.15,2.11-22.62,6.32-6.48,4.2-11.51,10.13-15.11,17.8-3.59,7.66-5.39,16.69-5.39,27.09s1.72,18.78,5.18,26.52c3.45,7.76,8.37,13.8,14.75,18.15,6.38,4.36,13.97,6.53,22.77,6.53,7.66,0,14.35-1.44,20.07-4.32ZM2613.6,213.81v-99h-15.17v99h15.17ZM2633.6,172.4c5.96,0,11.25-.8,15.89-2.41,4.63-1.61,8.58-3.81,11.84-6.6,3.26-2.79,5.77-5.96,7.52-9.5,1.75-3.54,2.62-7.2,2.62-10.99,0-5.86-1.47-10.9-4.4-15.11-2.93-4.21-6.98-7.43-12.13-9.64-5.16-2.22-10.99-3.34-17.52-3.34h-28.08v12.77h28.08c3.41,0,6.48.64,9.22,1.92,2.74,1.28,4.92,3.05,6.53,5.32,1.61,2.27,2.41,4.96,2.41,8.09,0,3.4-.9,6.36-2.7,8.86-1.8,2.51-4.3,4.45-7.51,5.82-3.22,1.37-6.86,2.05-10.92,2.05h-25.11v12.77h24.25ZM2670.76,213.81c-.47-4.63-1.49-9.24-3.05-13.83-1.56-4.59-3.83-9.01-6.81-13.27-2.98-4.25-6.71-8.27-11.2-12.05-4.49-3.79-9.86-7.23-16.1-10.36l-16.88,3.69c6.14,2.65,11.51,5.7,16.1,9.15,4.59,3.46,8.44,7.16,11.56,11.13,3.12,3.97,5.58,8.11,7.37,12.41,1.8,4.3,2.98,8.68,3.55,13.12h15.46ZM2692.46,127.58h64.53v-12.77h-64.53v12.77ZM2692.46,213.81h64.53v-12.77h-64.53v12.77ZM2732.32,213.81v-99h-15.18v99h15.18ZM2824.51,213.81v-86.24h31.91v-12.77h-79v12.77h31.91v86.24h15.18ZM2876.84,127.58h64.53v-12.77h-64.53v12.77ZM2876.84,213.81h64.53v-12.77h-64.53v12.77ZM2916.7,213.81v-99h-15.18v99h15.18ZM3023.14,211.19c5.72-2.89,10.28-6.95,13.69-12.2,3.41-5.25,5.44-11.37,6.1-18.37h-16.59c-.38,4.45-1.61,8.32-3.69,11.63-2.08,3.32-4.77,5.89-8.08,7.73-3.31,1.84-7.14,2.76-11.49,2.76-5.11,0-9.69-1.53-13.76-4.61-4.07-3.07-7.26-7.49-9.57-13.26-2.32-5.77-3.47-12.63-3.47-20.57s1.14-14.65,3.41-20.42c2.27-5.76,5.46-10.21,9.57-13.34,4.11-3.12,8.81-4.68,14.11-4.68,6.33,0,11.49,1.92,15.46,5.75,3.97,3.82,6.29,8.91,6.95,15.24h16.59c-.57-6.99-2.62-13-6.17-18.01-3.55-5.01-8.13-8.89-13.76-11.63-5.63-2.74-11.94-4.12-18.93-4.12-8.61,0-16.15,2.11-22.62,6.32-6.48,4.2-11.51,10.13-15.11,17.8-3.59,7.66-5.39,16.69-5.39,27.09s1.72,18.78,5.18,26.52c3.45,7.76,8.37,13.8,14.75,18.15,6.38,4.36,13.97,6.53,22.77,6.53,7.66,0,14.35-1.44,20.07-4.32ZM3052.15,213.81h15.17l20.14-65.38,6.1-21.7,5.81,21.55,20.14,65.53h15.46l-30.64-99h-21.7l-30.49,99ZM3121.79,188.99v-12.9h-55.03v12.9h55.03ZM3222.21,213.81v-12.77h-51.91v-86.24h-15.04v99h66.95ZM1622.27,369.8l3.12-61.98.85-21.98,3.97,21.98,13.33,61.98h12.77l13.47-61.98,4.26-21.84.57,21.84,3.26,61.98h14.89l-7.52-99h-19.43l-12.34,58.58-3.12,19.29-2.98-19.29-12.62-58.58h-19.71l-7.51,99h14.75ZM1700.85,369.8h15.17l20.14-65.38,6.1-21.7,5.81,21.55,20.14,65.53h15.46l-30.64-99h-21.7l-30.49,99ZM1770.49,344.98v-12.9h-55.03v12.9h55.03ZM1841.98,369.8v-86.24h31.91v-12.77h-79v12.77h31.91v86.24h15.18ZM1963.95,369.8v-12.77h-56.59v-32.06h38.58v-12.9h-38.58v-28.51h56.03v-12.77h-71.06v99h71.63ZM1999.84,369.8v-99h-15.17v99h15.17ZM2019.83,328.39c5.96,0,11.25-.8,15.89-2.41,4.63-1.61,8.58-3.81,11.84-6.6,3.26-2.79,5.77-5.96,7.52-9.5,1.75-3.54,2.62-7.2,2.62-10.99,0-5.86-1.47-10.9-4.4-15.11-2.93-4.21-6.98-7.43-12.13-9.64-5.16-2.22-10.99-3.34-17.52-3.34h-28.08v12.77h28.08c3.41,0,6.48.64,9.22,1.92s4.92,3.05,6.53,5.32c1.61,2.27,2.41,4.96,2.41,8.09,0,3.4-.9,6.36-2.7,8.86-1.8,2.51-4.3,4.45-7.51,5.82-3.22,1.37-6.86,2.05-10.92,2.05h-25.11v12.77h24.25ZM2056.99,369.8c-.47-4.63-1.49-9.24-3.05-13.83-1.56-4.59-3.83-9.01-6.81-13.27-2.98-4.25-6.71-8.27-11.2-12.05-4.49-3.79-9.86-7.23-16.1-10.36l-16.88,3.69c6.14,2.65,11.51,5.7,16.1,9.15,4.59,3.46,8.44,7.16,11.56,11.13,3.12,3.97,5.58,8.11,7.37,12.41,1.8,4.3,2.98,8.68,3.55,13.12h15.46ZM2078.69,283.56h64.53v-12.77h-64.53v12.77ZM2078.69,369.8h64.53v-12.77h-64.53v12.77ZM2118.55,369.8v-99h-15.18v99h15.18ZM2161.81,369.8h15.17l20.14-65.38,6.1-21.7,5.81,21.55,20.14,65.53h15.46l-30.64-99h-21.7l-30.49,99ZM2231.45,344.98v-12.9h-55.03v12.9h55.03ZM2331.87,369.8v-12.77h-51.91v-86.24h-15.04v99h66.95ZM2407.32,367.95c5.39-2.36,9.65-5.69,12.77-10,3.12-4.3,4.68-9.38,4.68-15.25,0-5.48-1.02-10-3.05-13.54-2.04-3.55-4.73-6.38-8.09-8.51-3.36-2.12-7.02-3.82-10.99-5.1-3.97-1.28-7.96-2.42-11.99-3.41-4.02-.99-7.71-2.08-11.06-3.26-3.36-1.18-6.05-2.72-8.08-4.61-2.04-1.89-3.05-4.39-3.05-7.51,0-4.63,1.75-8.28,5.25-10.93,3.5-2.65,8.04-3.97,13.62-3.97,3.87,0,7.4.73,10.57,2.2,3.17,1.47,5.7,3.57,7.59,6.31,1.89,2.75,2.88,6.01,2.98,9.79h15.17c-.1-6.53-1.77-12.08-5.03-16.67-3.26-4.59-7.59-8.13-12.98-10.63-5.39-2.51-11.49-3.76-18.3-3.76s-13.1,1.21-18.29,3.62c-5.2,2.42-9.22,5.73-12.06,9.93-2.84,4.2-4.26,9.05-4.26,14.54,0,5.1,1.02,9.29,3.05,12.55,2.03,3.26,4.72,5.91,8.08,7.94,3.36,2.04,7.02,3.69,10.99,4.96,3.97,1.28,7.94,2.44,11.92,3.48,3.97,1.04,7.63,2.2,10.99,3.48,3.36,1.27,6.05,2.95,8.08,5.03,2.03,2.08,3.05,4.82,3.05,8.23,0,5.01-1.84,8.91-5.53,11.7-3.69,2.79-8.51,4.18-14.47,4.18-7.09,0-12.67-2.1-16.74-6.31-4.07-4.21-6.1-10.19-6.1-17.94h-14.89c0,7.86,1.54,14.52,4.61,20,3.07,5.49,7.44,9.7,13.12,12.63,5.67,2.93,12.34,4.39,20,4.39,6.9,0,13.05-1.19,18.44-3.55ZM2578.42,369.8v-12.77h-51.91v-86.24h-15.04v99h66.95ZM2592.75,369.8h15.17l20.14-65.38,6.1-21.7,5.81,21.55,20.14,65.53h15.46l-30.64-99h-21.7l-30.49,99ZM2662.39,344.98v-12.9h-55.03v12.9h55.03ZM2754.72,313.06c2.45-2.17,4.32-4.75,5.6-7.73,1.28-2.98,1.91-6.22,1.91-9.72,0-7.46-2.93-13.47-8.79-18.01-5.86-4.54-14-6.81-24.4-6.81h-37.02v99h38.44c6.99,0,13.05-1.15,18.15-3.48,5.11-2.32,9.05-5.55,11.85-9.71,2.79-4.16,4.18-9.03,4.18-14.61,0-4.35-.83-8.13-2.48-11.34-1.65-3.22-3.88-5.89-6.67-8.02-2.79-2.12-5.98-3.66-9.57-4.61,3.41-1.13,6.33-2.79,8.8-4.96ZM2741.53,287.32c3.31,2.51,4.96,6.03,4.96,10.57s-1.63,8.04-4.89,10.78c-3.26,2.74-7.68,4.11-13.26,4.11h-21.13v-29.22h21.13c5.48,0,9.88,1.25,13.19,3.76ZM2707.21,325.55h21.56c6.24,0,11.16,1.4,14.75,4.19,3.59,2.79,5.39,6.64,5.39,11.56s-1.7,8.66-5.11,11.49c-3.41,2.84-7.99,4.26-13.76,4.26h-22.84v-31.49Z"/></svg>